<svg xmlns="http://www.w3.org/2000/svg" xmlns:xlink="http://www.w3.org/1999/xlink" contentStyleType="text/css" data-diagram-type="CLASS" height="174px" preserveAspectRatio="none" style="width:1631px;height:174px;background:#FFFFFF;" version="1.1" viewBox="0 0 1631 174" width="1631px" zoomAndPan="magnify"><defs/><g><!--class DataCollection--><g id="elem_DataCollection"><rect codeLine="1" fill="#F1F1F1" height="80.5938" id="DataCollection" rx="2.5" ry="2.5" style="stroke:#181818;stroke-width:0.5;" width="298.1934" x="296.65" y="78.39"/><ellipse cx="390.1588" cy="94.39" fill="#ADD1B2" rx="11" ry="11" style="stroke:#181818;stroke-width:1;"/><path d="M393.1275,100.0306 Q392.5494,100.3275 391.9088,100.4681 Q391.2682,100.6244 390.565,100.6244 Q388.065,100.6244 386.7369,98.9838 Q385.4244,97.3275 385.4244,94.2025 Q385.4244,91.0775 386.7369,89.4213 Q388.065,87.765 390.565,87.765 Q391.2682,87.765 391.9088,87.9213 Q392.565,88.0775 393.1275,88.3744 L393.1275,91.0931 Q392.5025,90.515 391.9088,90.2494 Q391.315,89.9681 390.69,89.9681 Q389.3463,89.9681 388.6588,91.0463 Q387.9713,92.1088 387.9713,94.2025 Q387.9713,96.2963 388.6588,97.3744 Q389.3463,98.4369 390.69,98.4369 Q391.315,98.4369 391.9088,98.1713 Q392.5025,97.89 393.1275,97.3119 L393.1275,100.0306 Z " fill="#000000"/><text fill="#000000" font-family="sans-serif" font-size="14" lengthAdjust="spacing" textLength="102.6758" x="410.6588" y="99.2367">DataCollection</text><line style="stroke:#181818;stroke-width:0.5;" x1="297.65" x2="593.8434" y1="110.39" y2="110.39"/><line style="stroke:#181818;stroke-width:0.5;" x1="297.65" x2="593.8434" y1="118.39" y2="118.39"/><ellipse cx="307.65" cy="132.0384" fill="#84BE84" rx="3" ry="3" style="stroke:#038048;stroke-width:1;"/><text fill="#000000" font-family="sans-serif" font-size="14" lengthAdjust="spacing" textLength="263.3408" x="316.65" y="135.3851">fetchData(source: string): DataFrame</text><ellipse cx="307.65" cy="148.3353" fill="#84BE84" rx="3" ry="3" style="stroke:#038048;stroke-width:1;"/><text fill="#000000" font-family="sans-serif" font-size="14" lengthAdjust="spacing" textLength="272.1934" x="316.65" y="151.682">filterDataByYear(year: int): DataFrame</text></g><!--class DataProcessing--><g id="elem_DataProcessing"><rect codeLine="6" fill="#F1F1F1" height="96.8906" id="DataProcessing" rx="2.5" ry="2.5" style="stroke:#181818;stroke-width:0.5;" width="366.6553" x="729.42" y="70.24"/><ellipse cx="854.128" cy="86.24" fill="#ADD1B2" rx="11" ry="11" style="stroke:#181818;stroke-width:1;"/><path d="M857.0968,91.8806 Q856.5186,92.1775 855.878,92.3181 Q855.2374,92.4744 854.5343,92.4744 Q852.0343,92.4744 850.7061,90.8338 Q849.3936,89.1775 849.3936,86.0525 Q849.3936,82.9275 850.7061,81.2713 Q852.0343,79.615 854.5343,79.615 Q855.2374,79.615 855.878,79.7713 Q856.5343,79.9275 857.0968,80.2244 L857.0968,82.9431 Q856.4718,82.365 855.878,82.0994 Q855.2843,81.8181 854.6593,81.8181 Q853.3155,81.8181 852.628,82.8963 Q851.9405,83.9588 851.9405,86.0525 Q851.9405,88.1463 852.628,89.2244 Q853.3155,90.2869 854.6593,90.2869 Q855.2843,90.2869 855.878,90.0213 Q856.4718,89.74 857.0968,89.1619 L857.0968,91.8806 Z " fill="#000000"/><text fill="#000000" font-family="sans-serif" font-size="14" lengthAdjust="spacing" textLength="108.7393" x="874.628" y="91.0867">DataProcessing</text><line style="stroke:#181818;stroke-width:0.5;" x1="730.42" x2="1095.0753" y1="102.24" y2="102.24"/><line style="stroke:#181818;stroke-width:0.5;" x1="730.42" x2="1095.0753" y1="110.24" y2="110.24"/><ellipse cx="740.42" cy="123.8884" fill="#84BE84" rx="3" ry="3" style="stroke:#038048;stroke-width:1;"/><text fill="#000000" font-family="sans-serif" font-size="14" lengthAdjust="spacing" textLength="270.2861" x="749.42" y="127.2351">cleanData(df: DataFrame): DataFrame</text><ellipse cx="740.42" cy="140.1853" fill="#84BE84" rx="3" ry="3" style="stroke:#038048;stroke-width:1;"/><text fill="#000000" font-family="sans-serif" font-size="14" lengthAdjust="spacing" textLength="301.7861" x="749.42" y="143.532">normalizeData(df: DataFrame): DataFrame</text><ellipse cx="740.42" cy="156.4822" fill="#84BE84" rx="3" ry="3" style="stroke:#038048;stroke-width:1;"/><text fill="#000000" font-family="sans-serif" font-size="14" lengthAdjust="spacing" textLength="340.6553" x="749.42" y="159.8289">aggregateIndicators(df: DataFrame): DataFrame</text></g><!--class DataVisualization--><g id="elem_DataVisualization"><rect codeLine="12" fill="#F1F1F1" height="96.8906" id="DataVisualization" rx="2.5" ry="2.5" style="stroke:#181818;stroke-width:0.5;" width="341.8887" x="1282.8" y="70.24"/><ellipse cx="1388.4118" cy="86.24" fill="#ADD1B2" rx="11" ry="11" style="stroke:#181818;stroke-width:1;"/><path d="M1391.3806,91.8806 Q1390.8024,92.1775 1390.1618,92.3181 Q1389.5212,92.4744 1388.8181,92.4744 Q1386.3181,92.4744 1384.9899,90.8338 Q1383.6774,89.1775 1383.6774,86.0525 Q1383.6774,82.9275 1384.9899,81.2713 Q1386.3181,79.615 1388.8181,79.615 Q1389.5212,79.615 1390.1618,79.7713 Q1390.8181,79.9275 1391.3806,80.2244 L1391.3806,82.9431 Q1390.7556,82.365 1390.1618,82.0994 Q1389.5681,81.8181 1388.9431,81.8181 Q1387.5993,81.8181 1386.9118,82.8963 Q1386.2243,83.9588 1386.2243,86.0525 Q1386.2243,88.1463 1386.9118,89.2244 Q1387.5993,90.2869 1388.9431,90.2869 Q1389.5681,90.2869 1390.1618,90.0213 Q1390.7556,89.74 1391.3806,89.1619 L1391.3806,91.8806 Z " fill="#000000"/><text fill="#000000" font-family="sans-serif" font-size="14" lengthAdjust="spacing" textLength="122.165" x="1408.9118" y="91.0867">DataVisualization</text><line style="stroke:#181818;stroke-width:0.5;" x1="1283.8" x2="1623.6887" y1="102.24" y2="102.24"/><line style="stroke:#181818;stroke-width:0.5;" x1="1283.8" x2="1623.6887" y1="110.24" y2="110.24"/><ellipse cx="1293.8" cy="123.8884" fill="#84BE84" rx="3" ry="3" style="stroke:#038048;stroke-width:1;"/><text fill="#000000" font-family="sans-serif" font-size="14" lengthAdjust="spacing" textLength="253.0049" x="1302.8" y="127.2351">createMap(df: GeoDataFrame): Map</text><ellipse cx="1293.8" cy="140.1853" fill="#84BE84" rx="3" ry="3" style="stroke:#038048;stroke-width:1;"/><text fill="#000000" font-family="sans-serif" font-size="14" lengthAdjust="spacing" textLength="315.8887" x="1302.8" y="143.532">saveVisualizations(map: Map, year: int): void</text><ellipse cx="1293.8" cy="156.4822" fill="#84BE84" rx="3" ry="3" style="stroke:#038048;stroke-width:1;"/><text fill="#000000" font-family="sans-serif" font-size="14" lengthAdjust="spacing" textLength="234.8145" x="1302.8" y="159.8289">addYearSelector(map: Map): Map</text></g><!--class Main--><g id="elem_Main"><rect codeLine="18" fill="#F1F1F1" height="64.2969" id="Main" rx="2.5" ry="2.5" style="stroke:#181818;stroke-width:0.5;" width="201.4922" x="7" y="86.54"/><ellipse cx="86.7856" cy="102.54" fill="#ADD1B2" rx="11" ry="11" style="stroke:#181818;stroke-width:1;"/><path d="M89.7544,108.1806 Q89.1763,108.4775 88.5356,108.6181 Q87.895,108.7744 87.1919,108.7744 Q84.6919,108.7744 83.3638,107.1337 Q82.0513,105.4775 82.0513,102.3525 Q82.0513,99.2275 83.3638,97.5712 Q84.6919,95.915 87.1919,95.915 Q87.895,95.915 88.5356,96.0712 Q89.1919,96.2275 89.7544,96.5244 L89.7544,99.2431 Q89.1294,98.665 88.5356,98.3994 Q87.9419,98.1181 87.3169,98.1181 Q85.9731,98.1181 85.2856,99.1962 Q84.5981,100.2587 84.5981,102.3525 Q84.5981,104.4462 85.2856,105.5244 Q85.9731,106.5869 87.3169,106.5869 Q87.9419,106.5869 88.5356,106.3212 Q89.1294,106.04 89.7544,105.4619 L89.7544,108.1806 Z " fill="#000000"/><text fill="#000000" font-family="sans-serif" font-size="14" lengthAdjust="spacing" textLength="33.4209" x="107.2856" y="107.3867">Main</text><line style="stroke:#181818;stroke-width:0.5;" x1="8" x2="207.4922" y1="118.54" y2="118.54"/><line style="stroke:#181818;stroke-width:0.5;" x1="8" x2="207.4922" y1="126.54" y2="126.54"/><ellipse cx="18" cy="140.1884" fill="#84BE84" rx="3" ry="3" style="stroke:#038048;stroke-width:1;"/><text fill="#000000" font-family="sans-serif" font-size="14" lengthAdjust="spacing" textLength="175.4922" x="27" y="143.5351">main(args: string[]): void</text></g><!--link DataCollection to DataProcessing--><g id="link_DataCollection_DataProcessing"><path codeLine="22" d="M595.11,118.68 C637.81,118.68 678.84,118.68 723.33,118.68 " fill="#FFFFFF" fill-opacity="0.00000" id="DataCollection-to-DataProcessing" style="stroke:#181818;stroke-width:1;"/><polygon fill="#181818" points="729.33,118.68,720.33,114.68,724.33,118.68,720.33,122.68,729.33,118.68" style="stroke:#181818;stroke-width:1;"/><text fill="#000000" font-family="sans-serif" font-size="13" lengthAdjust="spacing" textLength="98.4268" x="613.13" y="111.7469">processes data</text></g><!--link DataProcessing to DataVisualization--><g id="link_DataProcessing_DataVisualization"><path codeLine="23" d="M1096.28,118.68 C1156.5,118.68 1217.14,118.68 1276.42,118.68 " fill="#FFFFFF" fill-opacity="0.00000" id="DataProcessing-to-DataVisualization" style="stroke:#181818;stroke-width:1;"/><polygon fill="#181818" points="1282.42,118.68,1273.42,114.68,1277.42,118.68,1273.42,122.68,1282.42,118.68" style="stroke:#181818;stroke-width:1;"/><text fill="#000000" font-family="sans-serif" font-size="13" lengthAdjust="spacing" textLength="150.998" x="1114.44" y="111.7469">generates visualization</text></g><!--link Main to DataCollection--><g id="link_Main_DataCollection"><path codeLine="24" d="M208.7,118.68 C236.22,118.68 260.64,118.68 290.25,118.68 " fill="#FFFFFF" fill-opacity="0.00000" id="Main-to-DataCollection" style="stroke:#181818;stroke-width:1;"/><polygon fill="#181818" points="296.25,118.68,287.25,114.68,291.25,118.68,287.25,122.68,296.25,118.68" style="stroke:#181818;stroke-width:1;"/><text fill="#000000" font-family="sans-serif" font-size="13" lengthAdjust="spacing" textLength="52.0063" x="226.57" y="111.7469">initiates</text></g><!--link Main to DataVisualization--><g id="link_Main_DataVisualization"><path codeLine="25" d="M208.68,86.41 C231.52,80.14 255.8,74.27 278.75,70.24 C644.26,6 745.16,27.01 1113.75,70.24 C1168.67,76.68 1222.4913,83.9545 1276.3613,91.7145 " fill="#FFFFFF" fill-opacity="0.00000" id="Main-to-DataVisualization" style="stroke:#181818;stroke-width:1;"/><polygon fill="#181818" points="1282.3,92.57,1273.9623,87.3277,1277.3511,91.8571,1272.8216,95.2459,1282.3,92.57" style="stroke:#181818;stroke-width:1;"/><text fill="#000000" font-family="sans-serif" font-size="13" lengthAdjust="spacing" textLength="29.1104" x="731.25" y="36.3069">calls</text></g><!--SRC=[ZL7DIiGm4BxtAK9F5VK5Ul2WedXO40H1nCEGpCQ1D2apsS8glhj9jorf5yGSIfhv_lX6En1Hzn3XBZY7EbBmwhjIwLpkCUhFF6ea75XZgoGoUNlHZeG7XWud9Bc8d1zlZsy8t1pJfrNaumhxKrLwyNlce54awSr-sY7uqS_i2zgvdG_SWQCl_0yOh6Mq4F796z8G0yiVb5N4Lv93ze6o5SsOn7RGZogF64gXz7n22GouealJGJy2hbJPpX38J46DoTszO5v3u0K_oIx9Ta1Bc2xT6s0hysxUFsRDXD-izVfcMtohwlxqXw9CcjNL1Z5nraqacaMFd7eGDPIZkXhJJQp2Er78KwHCMOFEf3Ku9_Kl]--></g></svg>