<svg xmlns="http://www.w3.org/2000/svg" xmlns:xlink="http://www.w3.org/1999/xlink" contentStyleType="text/css" data-diagram-type="CLASS" height="141px" preserveAspectRatio="none" style="width:1583px;height:141px;background:#FFFFFF;" version="1.1" viewBox="0 0 1583 141" width="1583px" zoomAndPan="magnify"><defs/><g><!--class DataCollection--><g id="elem_DataCollection"><rect codeLine="1" fill="#F1F1F1" height="64.2969" id="DataCollection" rx="2.5" ry="2.5" style="stroke:#181818;stroke-width:0.5;" width="289.3408" x="297.08" y="61.7059"/><ellipse cx="386.1625" cy="77.7059" fill="#ADD1B2" rx="11" ry="11" style="stroke:#181818;stroke-width:1;"/><path d="M389.1313,83.3465 Q388.5531,83.6434 387.9125,83.784 Q387.2719,83.9403 386.5688,83.9403 Q384.0688,83.9403 382.7406,82.2997 Q381.4281,80.6434 381.4281,77.5184 Q381.4281,74.3934 382.7406,72.7372 Q384.0688,71.0809 386.5688,71.0809 Q387.2719,71.0809 387.9125,71.2372 Q388.5688,71.3934 389.1313,71.6903 L389.1313,74.409 Q388.5063,73.8309 387.9125,73.5653 Q387.3188,73.284 386.6938,73.284 Q385.35,73.284 384.6625,74.3622 Q383.975,75.4247 383.975,77.5184 Q383.975,79.6122 384.6625,80.6903 Q385.35,81.7528 386.6938,81.7528 Q387.3188,81.7528 387.9125,81.4872 Q388.5063,81.2059 389.1313,80.6278 L389.1313,83.3465 Z " fill="#000000"/><text fill="#000000" font-family="sans-serif" font-size="14" lengthAdjust="spacing" textLength="102.6758" x="406.6625" y="82.5526">DataCollection</text><line style="stroke:#181818;stroke-width:0.5;" x1="298.08" x2="585.4208" y1="93.7059" y2="93.7059"/><line style="stroke:#181818;stroke-width:0.5;" x1="298.08" x2="585.4208" y1="101.7059" y2="101.7059"/><ellipse cx="308.08" cy="115.3544" fill="#84BE84" rx="3" ry="3" style="stroke:#038048;stroke-width:1;"/><text fill="#000000" font-family="sans-serif" font-size="14" lengthAdjust="spacing" textLength="263.3408" x="317.08" y="118.701">fetchData(source: string): DataFrame</text></g><!--class DataProcessing--><g id="elem_DataProcessing"><rect codeLine="5" fill="#F1F1F1" height="80.5938" id="DataProcessing" rx="2.5" ry="2.5" style="stroke:#181818;stroke-width:0.5;" width="327.7861" x="720.85" y="53.5659"/><ellipse cx="826.1234" cy="69.5659" fill="#ADD1B2" rx="11" ry="11" style="stroke:#181818;stroke-width:1;"/><path d="M829.0922,75.2065 Q828.5141,75.5034 827.8734,75.644 Q827.2328,75.8003 826.5297,75.8003 Q824.0297,75.8003 822.7016,74.1597 Q821.3891,72.5034 821.3891,69.3784 Q821.3891,66.2534 822.7016,64.5972 Q824.0297,62.9409 826.5297,62.9409 Q827.2328,62.9409 827.8734,63.0972 Q828.5297,63.2534 829.0922,63.5503 L829.0922,66.269 Q828.4672,65.6909 827.8734,65.4253 Q827.2797,65.144 826.6547,65.144 Q825.3109,65.144 824.6234,66.2222 Q823.9359,67.2847 823.9359,69.3784 Q823.9359,71.4722 824.6234,72.5503 Q825.3109,73.6128 826.6547,73.6128 Q827.2797,73.6128 827.8734,73.3472 Q828.4672,73.0659 829.0922,72.4878 L829.0922,75.2065 Z " fill="#000000"/><text fill="#000000" font-family="sans-serif" font-size="14" lengthAdjust="spacing" textLength="108.7393" x="846.6234" y="74.4126">DataProcessing</text><line style="stroke:#181818;stroke-width:0.5;" x1="721.85" x2="1047.6361" y1="85.5659" y2="85.5659"/><line style="stroke:#181818;stroke-width:0.5;" x1="721.85" x2="1047.6361" y1="93.5659" y2="93.5659"/><ellipse cx="731.85" cy="107.2144" fill="#84BE84" rx="3" ry="3" style="stroke:#038048;stroke-width:1;"/><text fill="#000000" font-family="sans-serif" font-size="14" lengthAdjust="spacing" textLength="270.2861" x="740.85" y="110.561">cleanData(df: DataFrame): DataFrame</text><ellipse cx="731.85" cy="123.5112" fill="#84BE84" rx="3" ry="3" style="stroke:#038048;stroke-width:1;"/><text fill="#000000" font-family="sans-serif" font-size="14" lengthAdjust="spacing" textLength="301.7861" x="740.85" y="126.8579">normalizeData(df: DataFrame): DataFrame</text></g><!--class DataVisualization--><g id="elem_DataVisualization"><rect codeLine="10" fill="#F1F1F1" height="80.5938" id="DataVisualization" rx="2.5" ry="2.5" style="stroke:#181818;stroke-width:0.5;" width="341.8887" x="1234.8" y="53.5659"/><ellipse cx="1340.4118" cy="69.5659" fill="#ADD1B2" rx="11" ry="11" style="stroke:#181818;stroke-width:1;"/><path d="M1343.3806,75.2065 Q1342.8024,75.5034 1342.1618,75.644 Q1341.5212,75.8003 1340.8181,75.8003 Q1338.3181,75.8003 1336.9899,74.1597 Q1335.6774,72.5034 1335.6774,69.3784 Q1335.6774,66.2534 1336.9899,64.5972 Q1338.3181,62.9409 1340.8181,62.9409 Q1341.5212,62.9409 1342.1618,63.0972 Q1342.8181,63.2534 1343.3806,63.5503 L1343.3806,66.269 Q1342.7556,65.6909 1342.1618,65.4253 Q1341.5681,65.144 1340.9431,65.144 Q1339.5993,65.144 1338.9118,66.2222 Q1338.2243,67.2847 1338.2243,69.3784 Q1338.2243,71.4722 1338.9118,72.5503 Q1339.5993,73.6128 1340.9431,73.6128 Q1341.5681,73.6128 1342.1618,73.3472 Q1342.7556,73.0659 1343.3806,72.4878 L1343.3806,75.2065 Z " fill="#000000"/><text fill="#000000" font-family="sans-serif" font-size="14" lengthAdjust="spacing" textLength="122.165" x="1360.9118" y="74.4126">DataVisualization</text><line style="stroke:#181818;stroke-width:0.5;" x1="1235.8" x2="1575.6887" y1="85.5659" y2="85.5659"/><line style="stroke:#181818;stroke-width:0.5;" x1="1235.8" x2="1575.6887" y1="93.5659" y2="93.5659"/><ellipse cx="1245.8" cy="107.2144" fill="#84BE84" rx="3" ry="3" style="stroke:#038048;stroke-width:1;"/><text fill="#000000" font-family="sans-serif" font-size="14" lengthAdjust="spacing" textLength="253.0049" x="1254.8" y="110.561">createMap(df: GeoDataFrame): Map</text><ellipse cx="1245.8" cy="123.5112" fill="#84BE84" rx="3" ry="3" style="stroke:#038048;stroke-width:1;"/><text fill="#000000" font-family="sans-serif" font-size="14" lengthAdjust="spacing" textLength="315.8887" x="1254.8" y="126.8579">saveVisualizations(map: Map, year: int): void</text></g><!--class Main--><g id="elem_Main"><rect codeLine="15" fill="#F1F1F1" height="64.2969" id="Main" rx="2.5" ry="2.5" style="stroke:#181818;stroke-width:0.5;" width="201.4922" x="7" y="61.7059"/><ellipse cx="86.7856" cy="77.7059" fill="#ADD1B2" rx="11" ry="11" style="stroke:#181818;stroke-width:1;"/><path d="M89.7544,83.3465 Q89.1763,83.6434 88.5356,83.784 Q87.895,83.9403 87.1919,83.9403 Q84.6919,83.9403 83.3638,82.2997 Q82.0513,80.6434 82.0513,77.5184 Q82.0513,74.3934 83.3638,72.7372 Q84.6919,71.0809 87.1919,71.0809 Q87.895,71.0809 88.5356,71.2372 Q89.1919,71.3934 89.7544,71.6903 L89.7544,74.409 Q89.1294,73.8309 88.5356,73.5653 Q87.9419,73.284 87.3169,73.284 Q85.9731,73.284 85.2856,74.3622 Q84.5981,75.4247 84.5981,77.5184 Q84.5981,79.6122 85.2856,80.6903 Q85.9731,81.7528 87.3169,81.7528 Q87.9419,81.7528 88.5356,81.4872 Q89.1294,81.2059 89.7544,80.6278 L89.7544,83.3465 Z " fill="#000000"/><text fill="#000000" font-family="sans-serif" font-size="14" lengthAdjust="spacing" textLength="33.4209" x="107.2856" y="82.5526">Main</text><line style="stroke:#181818;stroke-width:0.5;" x1="8" x2="207.4922" y1="93.7059" y2="93.7059"/><line style="stroke:#181818;stroke-width:0.5;" x1="8" x2="207.4922" y1="101.7059" y2="101.7059"/><ellipse cx="18" cy="115.3544" fill="#84BE84" rx="3" ry="3" style="stroke:#038048;stroke-width:1;"/><text fill="#000000" font-family="sans-serif" font-size="14" lengthAdjust="spacing" textLength="175.4922" x="27" y="118.701">main(args: string[]): void</text></g><!--link DataCollection to DataProcessing--><g id="link_DataCollection_DataProcessing"><path codeLine="19" d="M586.8,93.8559 C629.57,93.8559 670.68,93.8559 714.56,93.8559 " fill="#FFFFFF" fill-opacity="0.00000" id="DataCollection-to-DataProcessing" style="stroke:#181818;stroke-width:1;"/><polygon fill="#181818" points="720.56,93.8559,711.56,89.8559,715.56,93.8559,711.56,97.8559,720.56,93.8559" style="stroke:#181818;stroke-width:1;"/><text fill="#000000" font-family="sans-serif" font-size="13" lengthAdjust="spacing" textLength="98.4268" x="604.63" y="86.9228">processes data</text></g><!--link DataProcessing to DataVisualization--><g id="link_DataProcessing_DataVisualization"><path codeLine="20" d="M1048.88,93.8559 C1107.94,93.8559 1168.69,93.8559 1228.35,93.8559 " fill="#FFFFFF" fill-opacity="0.00000" id="DataProcessing-to-DataVisualization" style="stroke:#181818;stroke-width:1;"/><polygon fill="#181818" points="1234.35,93.8559,1225.35,89.8559,1229.35,93.8559,1225.35,97.8559,1234.35,93.8559" style="stroke:#181818;stroke-width:1;"/><text fill="#000000" font-family="sans-serif" font-size="13" lengthAdjust="spacing" textLength="150.998" x="1066.72" y="86.9228">generates visualization</text></g><!--link Main to DataCollection--><g id="link_Main_DataCollection"><path codeLine="21" d="M208.86,93.8559 C236.51,93.8559 261.03,93.8559 290.61,93.8559 " fill="#FFFFFF" fill-opacity="0.00000" id="Main-to-DataCollection" style="stroke:#181818;stroke-width:1;"/><polygon fill="#181818" points="296.61,93.8559,287.61,89.8559,291.61,93.8559,287.61,97.8559,296.61,93.8559" style="stroke:#181818;stroke-width:1;"/><text fill="#000000" font-family="sans-serif" font-size="13" lengthAdjust="spacing" textLength="52.0063" x="226.78" y="86.9228">initiates</text></g><!--link Main to DataVisualization--><g id="link_Main_DataVisualization"><path codeLine="22" d="M208.66,67.5359 C231.88,62.2259 256.56,57.1759 279.75,53.5659 C279.75,53.5659 1065.75,53.5659 1065.75,53.5659 C1120.69,59.6459 1174.622,65.9276 1228.622,72.3476 " fill="#FFFFFF" fill-opacity="0.00000" id="Main-to-DataVisualization" style="stroke:#181818;stroke-width:1;"/><polygon fill="#181818" points="1234.58,73.0559,1226.1152,68.0214,1229.615,72.4656,1225.1707,75.9654,1234.58,73.0559" style="stroke:#181818;stroke-width:1;"/><text fill="#000000" font-family="sans-serif" font-size="13" lengthAdjust="spacing" textLength="29.1104" x="707.25" y="19.6328">calls</text></g><!--SRC=[XP2_JiGm3CRtF8NLgGZk1JgmW60wYOdbn62blc8fJQeuLmdGlVkvkJyaPI1J4d-_xxDj7Oh0CoPy2iwHJHmy_1ZGSx-dP3-NKYlX42rr82co7-ww3Bn47CaSZR4tZxSOB8cevkfX7Q7F7ls-m2gBBFGXZkZuc_uHLtdlB8S5mh9j6maJRN7ABgyKIYFzFgi4PwfmQKUSik01lWXZ1-oJ4dFW_ZTrYtmB6lNUOXpakfZTHw5VxNJpkDvG1yrqVf50hxN6h1GNffvIiO4yHPrHO2vBZSdTNQWYMn7sd7X1Qj4VQulEINC2]--></g></svg>